nColumns=19
nRows=101
DataType=double
version=3
OpenSimVersion=4.1
endheader
time	ground_force_calcn_r_vx	ground_force_calcn_r_vy	ground_force_calcn_r_vz	ground_force_calcn_r_px	ground_force_calcn_r_py	ground_force_calcn_r_pz	ground_force_calcn_r_mx	ground_force_calcn_r_my	ground_force_calcn_r_mz	ground_force_calcn_l_vx	ground_force_calcn_l_vy	ground_force_calcn_l_vz	ground_force_calcn_l_px	ground_force_calcn_l_py	ground_force_calcn_l_pz	ground_force_calcn_l_mx	ground_force_calcn_l_my	ground_force_calcn_l_mz
0.341667	-0.181394	12.8103	-0.540263	-0.000966642	0	0.000250252	4.59523e-21	-3.24523e-19	1.36864e-20	0	0	0	0	0	0	0	0	0
0.35	-3.89609	32.3985	-2.60573	1.09677	0	-0.224121	0.342462	-2.84779	0.229041	0	0	0	0	0	0	0	0	0
0.358333	-9.20309	91.5086	-4.51778	1.11123	0	-0.279288	-0.481764	4.7903	-0.236497	0	0	0	0	0	0	0	0	0
0.366667	-12.1134	228.81	-4.36358	1.09871	0	-0.293455	-0.724386	13.683	-0.260945	0	0	0	0	0	0	0	0	0
0.375	-12.5674	474.36	2.21614	1.08685	0	-0.298175	-0.433495	16.3624	0.076443	0	0	0	0	0	0	0	0	0
0.383333	-22.6691	796.127	19.1027	1.07758	0	-0.300368	-0.205073	7.20206	0.17281	0	0	0	0	0	0	0	0	0
0.391667	-58.8018	1084.5	43.3833	1.07053	0	-0.300521	0.541704	-9.99084	-0.399663	0	0	0	0	0	0	0	0	0
0.4	-122.203	1252.74	63.1721	1.06415	0	-0.299672	2.17193	-22.2652	-1.12277	0	0	0	0	0	0	0	0	0
0.408333	-190.71	1329.86	66.5269	1.05479	0	-0.300298	2.7378	-19.0912	-0.95505	0	0	0	0	0	0	0	0	0
0.416667	-235.121	1403.62	54.3758	1.03944	0	-0.303164	0.648125	-3.86916	-0.14989	0	0	0	0	0	0	0	0	0
0.425	-241.791	1518.61	40.5668	1.01881	0	-0.304643	-1.50691	9.46439	0.252824	0	0	0	0	0	0	0	0	0
0.433333	-218.846	1655.29	36.4728	0.995655	0	-0.30271	-1.41146	10.6759	0.235234	0	0	0	0	0	0	0	0	0
0.441667	-183.284	1766.99	39.0652	0.972218	0	-0.299855	-0.31491	3.03597	0.0671201	0	0	0	0	0	0	0	0	0
0.45	-143.927	1823.98	37.6348	0.948854	0	-0.298436	0.172186	-2.1821	-0.0450242	0	0	0	0	0	0	0	0	0
0.458333	-103.959	1827.37	29.0162	0.925554	0	-0.298283	-0.0146064	0.256747	0.00407681	0	0	0	0	0	0	0	0	0
0.466667	-65.9197	1794.55	20.5865	0.902556	0	-0.297626	-0.195344	5.31792	0.0610056	0	0	0	0	0	0	0	0	0
0.475	-29.214	1736.64	18.9035	0.87968	0	-0.295435	-0.113652	6.75607	0.0735406	0	0	0	0	0	0	0	0	0
0.483333	11.6	1649.98	21.6165	0.856116	0	-0.292749	0.0365452	5.19817	0.0681019	0	0	0	0	0	0	0	0	0
0.491667	58.9566	1532.28	23.3896	0.830863	0	-0.291242	0.184507	4.79533	0.0731988	0	0	0	0	0	0	0	0	0
0.5	108.028	1392.72	25.1433	0.804035	0	-0.291039	0.42794	5.51706	0.0996018	0	0	0	0	0	0	0	0	0
0.508333	151.945	1242.83	32.1529	0.776691	0	-0.291048	0.405386	3.31585	0.0857837	0	0	0	0	0	0	0	0	0
0.516667	185.317	1085.52	44.5768	0.74981	0	-0.291084	-0.473219	-2.77193	-0.11383	0	0	0	0	0	0	0	0	0
0.525	204.816	917.456	55.2352	0.723898	0	-0.291981	-1.80906	-8.10351	-0.48787	0	0	0	0	0	0	0	0	0
0.533333	208.57	741.027	57.7803	0.698379	0	-0.293754	-2.35459	-8.36561	-0.652295	0	0	0	0	0	0	0	0	0
0.541667	194.399	569.647	53.2569	0.673319	0	-0.294716	-1.68318	-4.93221	-0.461117	0	0	0	0	0	0	0	0	0
0.55	164.13	418.812	46.6513	0.651905	0	-0.292757	-0.829814	-2.11744	-0.235861	0	0	0	0	0	0	0	0	0
0.558333	125.434	294.047	39.7065	0.638944	0	-0.286854	-0.560461	-1.31386	-0.177416	0	0	0	0	0	0	0	0	0
0.566667	87.5314	192.573	30.2943	0.634393	0	-0.276279	-0.209111	-0.460054	-0.0723726	0	0	0	0	0	0	0	0	0
0.575	56.4454	112.782	18.0802	0.629413	0	-0.257888	0.840168	1.67871	0.269117	0	0	0	0	0	0	0	0	0
0.583333	32.7313	56.8476	7.33746	0.621779	0	-0.224021	1.79265	3.11348	0.401864	0	0	0	0	0	0	0	0	0
0.591667	15.975	25.9272	2.56407	0.643972	0	-0.18074	1.09425	1.77595	0.175633	0	0	0	0	0	0	0	0	0
0.6	6.46029	14.3236	3.08687	-0.000966649	0	0.000250235	1.79327e-19	3.976e-19	8.56864e-20	0	0	0	0	0	0	0	0	0
0.608333	2.71456	11.051	4.14843	-0.000966649	0	0.000250234	-9.4771e-20	-3.85812e-19	-1.4483e-19	0	0	0	0	0	0	0	0	0
0.616667	0	0	0	0	0	0	0	0	0	0	0	0	0	0	0	0	0	0
0.625	0	0	0	0	0	0	0	0	0	0	0	0	0	0	0	0	0	0
0.633333	0	0	0	0	0	0	0	0	0	0	0	0	0	0	0	0	0	0
0.641667	0	0	0	0	0	0	0	0	0	0	0	0	0	0	0	0	0	0
0.65	0	0	0	0	0	0	0	0	0	0	0	0	0	0	0	0	0	0
0.658333	0	0	0	0	0	0	0	0	0	0	0	0	0	0	0	0	0	0
0.666667	0	0	0	0	0	0	0	0	0	0	0	0	0	0	0	0	0	0
0.675	0	0	0	0	0	0	0	0	0	0	0	0	0	0	0	0	0	0
0.683333	0	0	0	0	0	0	0	0	0	0	0	0	0	0	0	0	0	0
0.691667	0	0	0	0	0	0	0	0	0	-0.0751095	13.6783	-0.330271	-0.000966647	0	0.000250213	-0	0	-0
0.7	0	0	0	0	0	0	0	0	0	-2.66276	26.8805	-3.9441	1.09892	0	-0.210081	0.251069	-2.53453	0.371885
0.708333	0	0	0	0	0	0	0	0	0	-7.21469	71.5674	-8.93312	1.09907	0	-0.279903	0.0652679	-0.647437	0.0808138
0.716667	0	0	0	0	0	0	0	0	0	-13.1009	186.006	-13.8395	1.07274	0	-0.296095	0.0706807	-1.00352	0.0746654
0.725	0	0	0	0	0	0	0	0	0	-23.0975	408.101	-18.3872	1.06026	0	-0.297324	0.27899	-4.92936	0.222094
0.733333	0	0	0	0	0	0	0	0	0	-44.9074	730.131	-23.7176	1.05432	0	-0.29491	0.612075	-9.95147	0.323263
0.741667	0	0	0	0	0	0	0	0	0	-83.3921	1055.33	-32.086	1.04875	0	-0.291985	0.843576	-10.6754	0.324575
0.75	0	0	0	0	0	0	0	0	0	-134.275	1268.61	-45.4891	1.04127	0	-0.290464	0.369547	-3.49142	0.125194
0.758333	0	0	0	0	0	0	0	0	0	-183.607	1367.59	-61.7565	1.03082	0	-0.291664	-1.10218	8.20953	-0.370719
0.766667	0	0	0	0	0	0	0	0	0	-213.724	1441.04	-72.1623	1.01591	0	-0.294112	-2.21863	14.9591	-0.749105
0.775	0	0	0	0	0	0	0	0	0	-217.386	1548.51	-67.8649	0.996217	0	-0.294522	-1.38701	9.88017	-0.433007
0.783333	0	0	0	0	0	0	0	0	0	-199.021	1676.07	-50.8186	0.973629	0	-0.29311	0.396087	-3.33569	0.101138
0.791667	0	0	0	0	0	0	0	0	0	-168.429	1777.9	-33.8075	0.950408	0	-0.292795	1.20898	-12.7617	0.24267
0.8	0	0	0	0	0	0	0	0	0	-133.177	1828.79	-26.4455	0.927583	0	-0.294857	0.798013	-10.9583	0.158465
0.808333	0	0	0	0	0	0	0	0	0	-95.1532	1835.07	-24.824	0.904928	0	-0.297869	0.165817	-3.19786	0.0432591
0.816667	0	0	0	0	0	0	0	0	0	-57.6476	1811.99	-19.0107	0.882363	0	-0.2998	0.00535889	-0.168442	0.00176722
0.825	0	0	0	0	0	0	0	0	0	-20.9465	1762.96	-7.66927	0.85987	0	-0.300533	0.0564796	-4.7536	0.0206792
0.833333	0	0	0	0	0	0	0	0	0	20.9858	1680.33	0.365156	0.836613	0	-0.301705	-0.123303	-9.87287	-0.00214549
0.841667	0	0	0	0	0	0	0	0	0	70.1176	1564.05	-1.66314	0.811407	0	-0.304015	-0.398471	-8.88831	0.00945142
0.85	0	0	0	0	0	0	0	0	0	120.786	1426.78	-10.4036	0.784433	0	-0.305995	-0.312521	-3.69166	0.0269182
0.858333	0	0	0	0	0	0	0	0	0	164.943	1277.94	-18.6017	0.757174	0	-0.306163	-0.0578523	-0.448228	0.00652439
0.866667	0	0	0	0	0	0	0	0	0	197.793	1116.21	-24.7037	0.730473	0	-0.304955	-0.116123	-0.655316	0.0145033
0.875	0	0	0	0	0	0	0	0	0	216.388	938.342	-32.2073	0.70423	0	-0.303651	-0.0853237	-0.369997	0.0126996
0.883333	0	0	0	0	0	0	0	0	0	217.987	750.083	-41.5966	0.678223	0	-0.302418	0.800275	2.7537	-0.152709
0.891667	0	0	0	0	0	0	0	0	0	200.772	568.079	-47.5679	0.653665	0	-0.300361	2.03665	5.76264	-0.482533
0.9	0	0	0	0	0	0	0	0	0	167.094	408.363	-45.0926	0.633807	0	-0.297879	1.99991	4.8876	-0.539703
0.908333	0	0	0	0	0	0	0	0	0	125.323	276.045	-35.4128	0.621129	0	-0.297723	0.27475	0.605182	-0.0776365
0.916667	0	0	0	0	0	0	0	0	0	84.4873	170.163	-24.254	0.614469	0	-0.303467	-1.70818	-3.44039	0.490372
0.925	0	0	0	0	0	0	0	0	0	50.6425	91.9553	-15.5219	0.6103	0	-0.318567	-2.6642	-4.83758	0.816577
0.933333	0	0	0	0	0	0	0	0	0	26.5739	43.0745	-8.8631	0.612749	0	-0.345324	-2.77109	-4.49175	0.924232
0.941667	0	0	0	0	0	0	0	0	0	11.9914	19.7408	-2.9228	0.667955	0	-0.372438	-2.82786	-4.65534	0.689264
0.95	0	0	0	0	0	0	0	0	0	5.17785	11.8769	1.56297	-0.000966657	0	0.00025014	-0	-0	-0
0.958333	0	0	0	0	0	0	0	0	0	0	0	0	0	0	0	0	0	0
0.966667	0	0	0	0	0	0	0	0	0	0	0	0	0	0	0	0	0	0
0.975	0	0	0	0	0	0	0	0	0	0	0	0	0	0	0	0	0	0
0.983333	0	0	0	0	0	0	0	0	0	0	0	0	0	0	0	0	0	0
0.991667	0	0	0	0	0	0	0	0	0	0	0	0	0	0	0	0	0	0
1	0	0	0	0	0	0	0	0	0	0	0	0	0	0	0	0	0	0
1.00833	0	0	0	0	0	0	0	0	0	0	0	0	0	0	0	0	0	0
1.01667	0	0	0	0	0	0	0	0	0	0	0	0	0	0	0	0	0	0
1.025	0	0	0	0	0	0	0	0	0	0	0	0	0	0	0	0	0	0
1.03333	0	0	0	0	0	0	0	0	0	0	0	0	0	0	0	0	0	0
1.04167	-2.07945	13.7447	0.464005	-0.000966688	0	0.000250134	-0	0	0	0	0	0	0	0	0	0	0	0
1.05	-6.7761	32.8499	-0.741368	1.11613	0	-0.264422	-0.184501	0.894443	-0.0201861	0	0	0	0	0	0	0	0	0
1.05833	-11.4488	90.8494	-0.588687	1.08926	0	-0.305469	-0.990616	7.86082	-0.0509366	0	0	0	0	0	0	0	0	0
1.06667	-11.1521	223.7	3.60002	1.06854	0	-0.309811	-0.654955	13.1378	0.211427	0	0	0	0	0	0	0	0	0
1.075	-5.19989	455.765	14.8349	1.0562	0	-0.311992	-0.117235	10.2756	0.334463	0	0	0	0	0	0	0	0	0
1.08333	-7.71221	752.991	34.0218	1.04666	0	-0.313071	0.0272899	-2.66448	-0.120387	0	0	0	0	0	0	0	0	0
1.09167	-37.7099	1015.18	55.781	1.03885	0	-0.312154	0.699	-18.8176	-1.03397	0	0	0	0	0	0	0	0	0
1.1	-96.1346	1171.18	68.4858	1.03138	0	-0.310695	2.12182	-25.8494	-1.51157	0	0	0	0	0	0	0	0	0
1.10833	-160.65	1257.89	63.6519	1.02115	0	-0.311374	2.22057	-17.387	-0.87982	0	0	0	0	0	0	0	0	0
1.11667	-202.238	1354.03	46.3286	1.00564	0	-0.313886	0.107891	-0.722355	-0.0247156	0	0	0	0	0	0	0	0	0
1.125	-206.632	1487.76	31.324	0.985198	0	-0.314119	-1.41007	10.1526	0.213758	0	0	0	0	0	0	0	0	0
1.13333	-183.055	1632.08	27.1303	0.962343	0	-0.311274	-0.955919	8.52279	0.141675	0	0	0	0	0	0	0	0	0
1.14167	-146.707	1744.96	27.8982	0.939119	0	-0.308326	-0.0762208	0.906583	0.0144943	0	0	0	0	0	0	0	0	0
1.15	-105.098	1804.09	23.8077	0.915623	0	-0.307135	0.120309	-2.06521	-0.0272535	0	0	0	0	0	0	0	0	0
1.15833	-62.4486	1813.33	14.8437	0.891886	0	-0.306898	-0.0559494	1.62461	0.0132989	0	0	0	0	0	0	0	0	0
1.16667	-22.2752	1788.09	9.31921	0.868406	0	-0.305728	-0.067983	5.45717	0.0284418	0	0	0	0	0	0	0	0	0
1.175	16.2162	1734.27	11.2324	0.845259	0	-0.303294	0.0468051	5.00563	0.0324201	0	0	0	0	0	0	0	0	0
